<?xml version="1.0" encoding="UTF-8" standalone="no"?>
<!-- Generator: Adobe Illustrator 25.4.0, SVG Export Plug-In . SVG Version: 6.00 Build 0)  -->

<svg
   version="1.1"
   id="Layer_1"
   x="0px"
   y="0px"
   viewBox="0 0 320 320"
   xml:space="preserve"
   sodipodi:docname="mojira.svg"
   width="320"
   height="320"
   inkscape:version="1.2.2 (732a01da63, 2022-12-09)"
   xmlns:inkscape="http://www.inkscape.org/namespaces/inkscape"
   xmlns:sodipodi="http://sodipodi.sourceforge.net/DTD/sodipodi-0.dtd"
   xmlns="http://www.w3.org/2000/svg"
   xmlns:svg="http://www.w3.org/2000/svg"><defs
   id="defs54" /><sodipodi:namedview
   id="namedview52"
   pagecolor="#ffffff"
   bordercolor="#000000"
   borderopacity="0.25"
   inkscape:showpageshadow="2"
   inkscape:pageopacity="0"
   inkscape:pagecheckerboard="true"
   inkscape:deskcolor="#d1d1d1"
   showgrid="false"
   inkscape:zoom="1.6295923"
   inkscape:cx="225.82336"
   inkscape:cy="88.979313"
   inkscape:window-width="1920"
   inkscape:window-height="1009"
   inkscape:window-x="-8"
   inkscape:window-y="-8"
   inkscape:window-maximized="1"
   inkscape:current-layer="Layer_1" />
<style
   type="text/css"
   id="style29">
	.st0{fill:#2ECC72;}
	.st1{fill:#FFFFFF;}
</style>

<g
   id="layer2"
   inkscape:label="Background"
   style="display:none"><rect
     style="fill:#000000;fill-opacity:1;stroke-width:0.93051"
     id="rect2985"
     width="288"
     height="288"
     x="16"
     y="16" /><rect
     style="fill:#666666;fill-opacity:1;stroke-width:0.827119"
     id="rect3004"
     width="256"
     height="256"
     x="32"
     y="32" /></g><g
   id="Vector"
   transform="translate(-53.968088,-356.17797)">
	
	
	
	
	
	
	
	
<path
   id="path6037"
   style="fill:#ffffff;fill-opacity:1;stroke-width:1.79248"
   class="st1"
   sodipodi:type="inkscape:offset"
   inkscape:radius="15.999764"
   inkscape:original="M 156.35352 388.17773 C 153.12975 388.17773 150.44336 390.86851 150.44336 394.09766 L 150.44336 446.66211 C 150.44336 449.89126 153.12975 452.58203 156.35352 452.58203 L 277.78125 452.58203 L 277.78125 563.98828 C 277.78125 572.59935 270.61761 579.95312 261.8418 579.95312 L 246.08203 579.95312 L 214.02344 579.95312 C 180.71119 579.95312 153.48803 554.29933 150.44336 522.00781 C 150.44336 518.77866 147.75697 516.08789 144.5332 516.08789 L 91.878906 516.08789 C 88.655136 516.08789 85.96875 518.77866 85.96875 522.00781 C 89.01342 589.9994 145.07008 644.17773 213.84375 644.17773 L 271.69336 644.17773 C 274.91712 644.17773 277.60352 641.48696 277.60352 638.25781 L 277.60352 611.88672 C 277.60352 594.12638 292.11049 579.77344 309.66211 579.77344 L 335.98828 579.77344 C 339.21204 579.77344 341.89844 577.08268 341.89844 573.85352 L 341.89844 446.30273 L 341.89844 393.74023 C 342.43573 390.86987 339.74916 388.17773 336.52539 388.17773 L 156.35352 388.17773 z "
   d="m 156.35352,372.17773 c -12.12678,0 -21.91016,9.81711 -21.91016,21.91993 v 52.56445 c 0,12.10282 9.78342,21.91992 21.91016,21.91992 h 105.42773 v 95.37109 h -15.69922 -32.05859 c -25.09797,0 -45.36806,-19.24103 -47.65039,-43.44726 l 0.0703,1.50195 c 0,-12.10282 -9.78342,-21.91992 -21.91016,-21.91992 H 91.878906 c -12.126739,0 -21.910156,9.81712 -21.910156,21.91992 a 16.001364,16.001364 0 0 0 0.01563,0.71485 c 3.420299,76.37989 66.682875,137.45507 143.859375,137.45507 h 57.84961 c 12.12676,0 21.91016,-9.81707 21.91016,-21.91992 v -26.37109 c 0,-9.04774 7.22957,-16.11328 16.05859,-16.11328 h 26.32617 c 12.12672,0 21.91016,-9.81709 21.91016,-21.91992 v -127.55079 -52.5625 l -0.27344,2.94336 c 2.64486,-14.12962 -8.96834,-24.50586 -21.09961,-24.50586 z" /><path
   class="st1"
   d="M 336.52634,388.17797 H 156.35365 c -3.22377,0 -5.91024,2.69096 -5.91024,5.92011 v 52.56342 c 0,3.22915 2.68647,5.92011 5.91024,5.92011 h 121.42851 v 111.40575 c 0,8.61107 -7.16392,15.96636 -15.93973,15.96636 H 246.0818 214.02324 v 0 0 c -33.31225,0 -60.53516,-25.65382 -63.57983,-57.94534 0,-3.22915 -2.68647,-5.92011 -5.91024,-5.92011 H 91.878328 c -3.22377,0 -5.91024,2.69096 -5.91024,5.92011 3.04467,67.99159 59.102382,122.16959 127.876052,122.16959 h 57.84869 c 3.22376,0 5.91024,-2.69096 5.91024,-5.92011 v -26.37141 c 0,-17.76034 14.50694,-32.11212 32.05856,-32.11212 h 26.32742 c 3.22376,0 5.91024,-2.69096 5.91024,-5.92012 v -127.5515 -52.56342 c 0.53729,-2.87036 -2.14918,-5.56132 -5.37295,-5.56132 z"
   id="path38"
   style="fill:#2ecc72;fill-opacity:1;stroke-width:1.79248" /></g>
</svg>
